# xmcd
#
# Track frame offsets: 
#        150
#        24297
#        36362
#        49880
#        58027
#        82122
#        99460
#        114512
#        125682
#        141077
#        157410
#        180607
#        191740
#
# Disc length: 2683 seconds
#
# Revision: 1
# Processed by: cddbd v1.5.2PL0 Copyright (c) Steve Scherf et al.
# Submitted via: ExactAudioCopy v0.95b3
#
DISCID=bc0a790d
DTITLE=Azalia Snail - Blue Danube
DYEAR=1995
DGENRE=Psychedelic
TTITLE0=Blue Danube
TTITLE1=King Of Everything
TTITLE2=Baby Apricot
TTITLE3=Illusory Hangout
TTITLE4=Slow Propulsion
TTITLE5=Song At Siesta Time
TTITLE6=Escape Maker
TTITLE7=Vitriolic Feeling
TTITLE8=Unaligned Sky
TTITLE9=Poison Decree
TTITLE10=Persuasion
TTITLE11=Evidence
TTITLE12=The Adult Sea
EXTD=YEAR: 1995
EXTT0=
EXTT1=
EXTT2=
EXTT3=
EXTT4=
EXTT5=
EXTT6=
EXTT7=
EXTT8=
EXTT9=
EXTT10=
EXTT11=
EXTT12=
PLAYORDER=
